<?xml version="1.0" encoding="UTF-8"?>
<!DOCTYPE svg PUBLIC "-//W3C//DTD SVG 1.1//EN" "http://www.w3.org/Graphics/SVG/1.1/DTD/svg11.dtd">
<!-- Creator: CorelDRAW -->
<svg xmlns="http://www.w3.org/2000/svg" xml:space="preserve" width="210mm" height="297mm" version="1.1" style="shape-rendering:geometricPrecision; text-rendering:geometricPrecision; image-rendering:optimizeQuality; fill-rule:evenodd; clip-rule:evenodd"
viewBox="0 0 21000 29700"
 xmlns:xlink="http://www.w3.org/1999/xlink"
 xmlns:sodipodi="http://sodipodi.sourceforge.net/DTD/sodipodi-0.dtd"
 xmlns:inkscape="http://www.inkscape.org/namespaces/inkscape"
 inkscape:version="0.92.3 (2405546, 2018-03-11)"
 sodipodi:docname="aeromexico.svg"
 enable-background="new 0 0 595.3 648"
 xmlns:dc="http://purl.org/dc/elements/1.1/"
 xmlns:cc="http://creativecommons.org/ns#"
 xmlns:rdf="http://www.w3.org/1999/02/22-rdf-syntax-ns#"
 xmlns:svg="http://www.w3.org/2000/svg">
 <defs>
  <style type="text/css">
   <![CDATA[
    .fil2 {fill:#008AD2}
    .fil6 {fill:#1D1D1B}
    .fil4 {fill:#575756}
    .fil0 {fill:#008AD2;fill-rule:nonzero}
    .fil7 {fill:#1D1D1B;fill-rule:nonzero}
    .fil5 {fill:#575756;fill-rule:nonzero}
    .fil1 {fill:#69B83A;fill-rule:nonzero}
    .fil9 {fill:#6F559F;fill-rule:nonzero}
    .fil8 {fill:#D63E81;fill-rule:nonzero}
    .fil3 {fill:#F08639;fill-rule:nonzero}
   ]]>
  </style>
 </defs>
 <g id="Layer_x0020_1">
  <metadata id="CorelCorpID_0Corel-Layer"/>
  <g id="Wonderful_x0020_Indonesia.cdr">
   <sodipodi:namedview pagecolor="#ffffff" bordercolor="#666666" borderopacity="1" objecttolerance="10" gridtolerance="10" guidetolerance="10" inkscape:pageopacity="0" inkscape:pageshadow="2" inkscape:window-width="1280" inkscape:window-height="1004" id="namedview198" showgrid="false" fit-margin-top="0" fit-margin-left="0" fit-margin-right="0" fit-margin-bottom="0" inkscape:zoom="8.7486948" inkscape:cx="247.11667" inkscape:cy="40.949792" inkscape:window-x="-8" inkscape:window-y="-8" inkscape:window-maximized="1" inkscape:current-layer="g3"/>
   <sodipodi:namedview id="base" pagecolor="#00ffff" bordercolor="#666666" borderopacity="1.0" inkscape:pageopacity="0" inkscape:pageshadow="2" inkscape:zoom="1.4" inkscape:cx="451.73565" inkscape:cy="-10.201303" inkscape:document-units="px" inkscape:current-layer="layer1" showgrid="false" fit-margin-left="0.3" fit-margin-top="0.3" fit-margin-right="0.3" fit-margin-bottom="0.3" units="px" inkscape:window-width="1920" inkscape:window-height="1001" inkscape:window-x="-9" inkscape:window-y="-9" inkscape:window-maximized="1"/>
   <sodipodi:namedview pagecolor="#ffffff" bordercolor="#666666" borderopacity="1" objecttolerance="10" gridtolerance="10" guidetolerance="10" inkscape:pageopacity="0" inkscape:pageshadow="2" inkscape:window-width="1280" inkscape:window-height="1004" id="namedview198" showgrid="false" fit-margin-top="0" fit-margin-left="0" fit-margin-right="0" fit-margin-bottom="0" inkscape:zoom="8.7486948" inkscape:cx="247.11667" inkscape:cy="40.949792" inkscape:window-x="-8" inkscape:window-y="-8" inkscape:window-maximized="1" inkscape:current-layer="g3"/>
   <sodipodi:namedview id="base" pagecolor="#00ffff" bordercolor="#666666" borderopacity="1.0" inkscape:pageopacity="0" inkscape:pageshadow="2" inkscape:zoom="1.4" inkscape:cx="451.73565" inkscape:cy="-10.201303" inkscape:document-units="px" inkscape:current-layer="layer1" showgrid="false" fit-margin-left="0.3" fit-margin-top="0.3" fit-margin-right="0.3" fit-margin-bottom="0.3" units="px" inkscape:window-width="1920" inkscape:window-height="1001" inkscape:window-x="-9" inkscape:window-y="-9" inkscape:window-maximized="1"/>
   <g>
    <path class="fil0" d="M13145 16178c0,0 -663,11 -720,-768 84,300 340,407 344,408l80 33 -66 -57c-180,-155 -281,-335 -284,-521 -4,-183 -49,-267 -23,-349 17,-52 17,-101 24,-172 1,-14 3,-28 4,-41l1 -17 -131 -123 -138 140 -3 9c-209,516 -750,477 -750,477 0,0 274,170 720,-157 48,102 19,204 21,344 0,0 -42,960 921,794z"/>
    <path class="fil1" d="M13163 14119c-71,0 -169,28 -169,28 -476,118 -476,620 -476,620 0,0 -16,403 399,534 0,0 235,61 394,-60 -283,124 -495,-56 -495,-56 209,91 339,81 386,60 47,-21 52,-65 32,-86 -20,-21 -62,-4 -51,22 10,27 39,12 39,12 0,0 -18,49 -108,42 -370,-27 -448,-242 -448,-242 100,144 319,173 319,173 -199,-68 -382,-294 -293,-574 97,-306 417,-287 417,-287 196,7 169,201 169,201 0,0 41,-69 4,-155 -35,-85 -159,-161 -411,-49 139,-117 333,-101 404,-65 216,106 69,278 69,278 0,0 77,-13 105,-129 27,-114 -59,-267 -286,-267z"/>
    <path class="fil2" d="M11886 14685c259,-58 418,-278 418,-278 143,-193 140,-491 140,-491 0,0 126,448 -250,696 0,0 -112,77 -265,138 -158,64 -214,5 -214,5 0,0 30,11 38,-16 7,-27 -35,-40 -53,-17 -17,23 -13,58 42,76 49,16 109,3 155,-7 46,-10 176,-67 215,-93 -142,152 -415,159 -484,149 239,36 388,29 595,-80 321,-167 347,-403 347,-403 73,-553 -101,-688 -129,-688 146,-4 121,-173 121,-173l-26 39c-26,39 -56,56 -98,56 -27,0 -57,-7 -89,-14 -19,-4 -39,-8 -60,-12l-10 -2c-38,-6 -73,-12 -111,-9 -34,3 -68,16 -101,40 -28,19 -72,72 -74,74l-55 65c267,-213 379,-50 379,-50 187,236 56,763 -431,995z"/>
    <path class="fil3" d="M12360 14658c-54,-363 -329,-772 -917,-772 -375,0 -569,253 -639,367 -74,122 -140,289 -122,350 9,28 26,38 41,41 4,1 13,2 18,2 26,-2 49,-29 47,-52 -2,-22 -24,-39 -49,-37 -13,1 -29,4 -31,14 113,-473 591,-557 591,-557 -415,150 -419,475 -419,475 300,-627 862,-394 1009,-307 0,0 313,159 334,585 9,175 -38,608 -450,765 0,0 702,-38 587,-874z"/>
    <g>
     <path class="fil4" d="M8811 14355c-40,0 -36,-33 -36,-75 0,0 0,-248 0,-249 1,-28 0,-93 -51,-93l-78 0 0 29 31 0c3,0 35,-4 35,60l0 108c0,0 -36,-47 -101,-47l-11 0c-29,0 -57,13 -85,34 -39,32 -58,79 -58,127l0 6c0,43 14,80 43,109 27,25 65,37 114,37 0,0 69,5 97,-63l1 0c0,15 -1,52 51,52l81 0 0 -35 -33 0zm-188 11l0 0c-17,0 -32,-3 -45,-10 -33,-17 -49,-53 -49,-105l0 -11c0,-12 2,-34 7,-49 16,-44 44,-66 85,-66l7 0c20,0 39,8 58,24 15,16 24,28 26,37l0 106c-24,82 -89,74 -89,74z"/>
     <path class="fil5" d="M9102 14360c-20,7 -35,8 -49,8 -42,0 -75,-16 -96,-49 -14,-21 -24,-45 -24,-71 0,-21 10,-28 31,-28l109 0c28,0 47,-17 47,-41 0,-43 -45,-91 -119,-91 -91,0 -139,55 -139,156 0,105 60,157 162,157 30,0 58,-6 87,-17 14,-5 9,-17 9,-17 0,0 -4,-12 -18,-7zm-83 -169l0 0 -80 0c3,-37 17,-76 60,-76 32,0 54,30 54,58 0,10 -2,18 -34,18z"/>
     <path class="fil4" d="M10166 14338l0 0c0,15 -1,52 51,52l81 0 0 -35 -32 0c-40,0 -36,-33 -36,-75l0 -245c0,-23 2,-97 -51,-97l-79 0 0 29 31 0c3,0 35,-4 35,60l0 311zm0 -152l0 0 0 116 0 -116z"/>
     <path class="fil4" d="M9513 14005l0 85 -68 0 0 29 68 0 0 188 0 9c-4,26 -15,39 -35,39l-33 0 0 35 74 0c6,0 13,-1 20,-4 23,-11 35,-33 36,-65l0 -202 51 0 0 -29 -51 0 0 -63c0,-52 19,-60 31,-60l35 0 0 -29 -82 0c-14,0 -46,5 -46,67z"/>
     <path class="fil4" d="M9358 14088c-27,0 -59,17 -76,51 0,-8 -3,-16 -7,-25 -11,-15 -25,-24 -42,-24l-77 0 0 29 30 0c31,0 36,23 36,47l0 224 63 0 0 -141c0,-58 9,-120 54,-120 27,0 41,25 41,25l28 -24c-6,-31 -33,-42 -50,-42z"/>
     <path class="fil4" d="M8372 14292l0 -83c0,-32 -11,-61 -34,-86 -23,-23 -50,-35 -81,-35l-7 0c-39,1 -75,16 -109,46l-3 -11c-11,-22 -27,-33 -46,-33l-80 0 0 29 30 0c0,0 37,0 37,43l0 228 65 0 0 -191c0,-10 4,-21 12,-31 24,-23 47,-35 71,-36 13,1 26,2 38,7 28,12 43,38 43,78l0 108c0,6 -2,65 47,65l87 0 0 -35 -37 0c-27,0 -33,-30 -33,-63z"/>
     <path class="fil4" d="M7589 14119l-16 0 0 -29 90 0c-52,127 -91,221 -117,281 0,0 -12,30 -19,30 -7,0 -20,-30 -20,-30 -32,-71 -67,-146 -86,-185 -32,80 -58,141 -77,185 0,0 -13,30 -20,30 -7,0 -20,-30 -20,-30 -59,-132 -97,-212 -112,-240 -7,-12 -29,-12 -29,-12l-31 0 0 -29 86 0c21,0 34,17 50,55l68 153c0,0 22,-49 65,-153 0,0 20,-57 34,-57 14,0 36,57 36,57l68 153c1,-3 23,-53 64,-152 0,0 11,-27 -14,-27z"/>
     <path class="fil4" d="M7838 14088c-34,0 -67,12 -97,35 -38,34 -57,73 -57,119l0 4c0,33 11,64 32,93 34,41 75,62 122,62 2,0 3,0 4,0 40,-1 76,-17 106,-46 30,-33 45,-70 45,-110 0,-39 -13,-73 -39,-105 -41,-43 -82,-52 -116,-52zm84 161l0 0c0,20 -4,39 -12,61 -19,36 -41,54 -68,54l-1 0c-15,0 -29,-6 -42,-17 -27,-26 -39,-60 -39,-102 0,-24 4,-47 14,-68 17,-34 40,-51 67,-51l1 0c17,0 34,8 50,25 20,27 30,57 30,89l0 9z"/>
     <path class="fil4" d="M9816 14272l0 -118c0,-47 -24,-64 -48,-64l-85 0 0 29 36 0c27,0 33,30 33,62l0 99c0,33 11,61 33,86 41,41 87,35 87,35 0,0 69,5 97,-63l1 0c0,15 -1,52 51,52l81 0 0 -35 -32 0c-41,0 -36,-33 -36,-75l0 -190 -64 0 0 202c-24,82 -85,71 -85,71 -68,0 -69,-91 -69,-91z"/>
    </g>
    <g>
     <path class="fil6" d="M11233 15122l2 0c0,23 -2,81 79,81l88 0 0 -54 -13 0c-50,0 -56,-51 -56,-116l0 -78c17,-3 34,-6 54,-10 14,-2 25,-4 33,-6 11,-4 20,-8 28,-15 28,-19 42,-41 42,-67 0,-10 -2,-20 -6,-30l0 0 0 1c-1,6 -2,13 -6,20 -7,15 -21,27 -43,34 -10,3 -44,10 -102,22l0 -13c0,-9 -2,-21 -5,-36 -3,-10 -23,-110 -146,-110l-125 0 0 44 100 0c72,0 78,86 78,103l0 32c-119,20 -141,26 -161,34 -18,6 -123,57 -123,149l0 2c0,30 14,62 41,84 7,5 34,25 84,25l11 0c0,0 128,5 146,-96zm2 -45l0 0c0,0 -39,73 -114,75 -19,1 -35,-6 -46,-20 -12,-17 -18,-32 -18,-50l0 0c0,-91 148,-107 178,-113l0 108z"/>
     <path class="fil7" d="M10169 15154c-30,12 -54,13 -75,13 -65,0 -116,-25 -151,-77 -21,-33 -37,-70 -37,-110 0,-33 17,-44 48,-44l171 0c43,0 74,-26 74,-63 0,-68 -72,-143 -187,-143 -141,0 -216,85 -216,244 0,163 94,244 253,244 47,0 91,-9 135,-26 22,-8 14,-27 14,-27 0,0 -6,-18 -29,-11zm-128 -264l0 0 -125 0c5,-56 26,-119 94,-119 49,0 84,49 84,92 0,15 -4,27 -53,27z"/>
     <path class="fil6" d="M9677 15054l0 -127c0,-50 -17,-94 -52,-133 -35,-35 -76,-53 -125,-53l-10 0c-59,1 -115,24 -167,71l-5 -17c-17,-34 -40,-50 -71,-50l-122 0 0 44 46 0c0,0 57,0 57,66l0 348 100 0 0 -292c0,-16 6,-31 19,-48 36,-35 72,-53 108,-54 20,0 39,3 57,9 44,19 66,59 67,121l0 166c0,8 -3,98 72,98l133 0 0 -54 -57 0c-42,0 -50,-45 -50,-95z"/>
     <path class="fil6" d="M8893 15160l0 0c-24,0 -46,-9 -67,-27 -41,-40 -61,-93 -61,-158 0,-38 7,-73 23,-105 27,-54 62,-80 105,-81l0 0c27,1 53,14 78,40 32,41 47,88 48,138l0 15c-1,29 -7,60 -20,94 -28,56 -64,84 -106,84zm1 57l0 0c62,-2 117,-25 165,-72 47,-50 70,-107 70,-170 0,-60 -20,-114 -61,-164 -64,-67 -128,-80 -181,-80 -53,0 -105,18 -151,54 -59,52 -88,114 -88,186l0 6c0,51 17,99 49,145 53,63 117,95 191,95l6 0z"/>
     <path class="fil6" d="M8604 15148c-61,0 -55,-50 -55,-114 0,0 0,-379 0,-381 0,-43 -1,-142 -78,-142l-120 0 0 44 47 0c6,0 54,-6 54,93l0 152c0,0 -55,-70 -154,-70l-18 0c-43,1 -86,17 -128,49 -60,49 -90,121 -90,194l0 21c0,68 22,124 66,167 41,38 99,57 174,57 0,0 106,8 149,-96l1 0c0,23 -2,79 78,79l124 0 0 -53 -50 0zm-287 18l0 0c-27,0 -50,-6 -70,-17 -50,-26 -75,-80 -75,-160l0 -29c0,-20 3,-52 11,-76 24,-67 68,-101 131,-101l10 0c30,0 59,12 88,37 23,24 37,44 40,57l0 175c-36,124 -135,114 -135,114z"/>
     <path class="fil6" d="M7946 15054l0 -127c0,-50 -17,-94 -52,-133 -34,-35 -76,-53 -124,-53l-11 0c-59,1 -115,24 -167,71l-5 -17c-16,-34 -40,-50 -70,-50l-123 0 0 44 46 0c0,0 57,0 57,66l0 348 100 0 0 -292c0,-16 6,-31 19,-48 36,-35 72,-53 108,-54 20,0 39,3 57,9 45,19 67,59 67,121l0 166c0,8 -3,98 73,98l132 0 0 -54 -56 0c-43,0 -51,-45 -51,-95z"/>
     <path class="fil6" d="M7132 14745l121 0c78,0 78,79 78,105l0 218c0,87 55,81 55,81l49 0 0 54 -123 0c-80,0 -78,-89 -78,-105l0 -243c0,-67 -49,-66 -54,-66l-48 0 0 -44z"/>
     <path class="fil6" d="M10608 14745l120 0c79,0 78,79 78,105l0 218c0,87 55,81 55,81l50 0 0 54 -123 0c-80,0 -79,-89 -79,-105l0 -243c0,-67 -49,-66 -54,-66l-47 0 0 -44z"/>
     <path class="fil7" d="M10539 14778l0 52 -44 0c0,0 4,-73 -62,-73 -54,0 -89,31 -89,78 0,30 29,57 84,91 81,49 143,77 143,160 0,0 7,132 -154,132 -47,0 -91,-9 -136,-26 -21,-8 -13,-27 -13,-27 0,0 6,-18 28,-11 0,0 194,66 197,-38 2,-61 -59,-82 -134,-126 -63,-38 -93,-72 -93,-122 0,-81 65,-138 158,-138 38,0 74,4 115,24l0 76 0 -52z"/>
    </g>
    <path class="fil8" d="M13304 13886c-588,0 -863,409 -917,772 -115,836 587,874 587,874 -412,-157 -459,-590 -450,-765 21,-426 334,-585 334,-585 0,0 174,-120 460,-114 290,7 402,198 402,198 103,160 -56,192 -56,192 -88,18 -103,-99 -103,-99 0,21 17,38 38,38 21,0 38,-17 38,-38 0,-21 -19,-42 -42,-42 0,0 -61,-2 -67,72 -10,125 129,176 237,116 95,-53 114,-136 97,-250 0,0 -42,-369 -558,-369z"/>
    <path class="fil9" d="M12177 13672c-155,10 -222,114 -222,114 94,-73 155,-26 155,-26 -81,-6 -105,69 -105,69 0,0 68,-30 121,-19 0,0 66,9 57,91 0,0 -10,92 -76,176 -36,46 -84,93 -158,106 -117,20 -331,-115 -550,-64 0,0 -79,17 -146,59 -58,36 -101,95 -124,183 0,0 29,-88 135,-156 35,-23 79,-43 133,-57 0,0 -168,64 -205,196 -19,66 -13,165 72,230 34,26 84,32 107,32 29,0 110,-11 134,-71 22,-55 -14,-92 -30,-99 0,0 -38,-17 -60,19 -6,10 -6,25 -1,35 5,8 12,14 22,17 7,3 16,2 22,-1 0,0 -25,18 -56,13 -32,-5 -69,-41 -64,-103 5,-56 59,-99 59,-99 0,0 89,-82 258,-15 58,24 148,53 278,53 103,1 182,-45 182,-45 75,-48 119,-112 119,-112 69,-103 101,-228 101,-228 45,-175 -43,-305 -158,-298zm-154 626l0 0c-5,3 -13,6 -24,9 -5,2 -11,3 -17,5 -6,2 -13,4 -21,5 -15,2 -32,4 -51,5 -19,0 -39,-1 -61,-3 -21,-3 -44,-7 -67,-12 -23,-6 -46,-12 -69,-19 -24,-8 -47,-15 -71,-23 -24,-7 -47,-14 -70,-18 -24,-4 -47,-6 -69,-5 -22,1 -43,5 -63,12 -19,7 -36,16 -51,26 -30,21 -50,45 -62,62 -7,9 -11,16 -14,21 -3,5 -5,7 -5,7 0,0 1,-3 3,-8 2,-6 6,-13 11,-23 5,-10 12,-21 22,-34 9,-12 21,-25 36,-37 15,-12 33,-23 53,-32 21,-8 44,-14 69,-16 24,-1 49,0 74,5 25,5 48,12 72,20 24,7 48,16 71,23 23,8 45,15 68,21 44,13 86,20 123,22 18,0 35,0 50,-2 8,0 14,-1 21,-2 6,-1 12,-2 18,-3 10,-3 18,-5 24,-7 5,-1 8,-2 8,-2 0,0 -2,1 -8,3z"/>
   </g>
  </g>
 </g>
</svg>
